<?xml version="1.0" standalone="no"?>
<!DOCTYPE svg PUBLIC "-//W3C//DTD SVG 20010904//EN"
 "http://www.w3.org/TR/2001/REC-SVG-20010904/DTD/svg10.dtd">
<svg version="1.0" xmlns="http://www.w3.org/2000/svg"
 width="70.000000pt" height="54.000000pt" viewBox="0 0 70.000000 54.000000"
 preserveAspectRatio="xMidYMid meet">

<g transform="translate(0.000000,54.000000) scale(0.100000,-0.100000)"
fill="#000000" stroke="none">
<path d="M271 503 c-5 -21 -13 -55 -17 -75 l-6 -38 102 0 102 0 -6 38 c-4 20
-12 54 -17 75 l-10 37 -69 0 -69 0 -10 -37z"/>
<path d="M131 283 c-17 -88 -23 -83 90 -83 91 0 100 2 96 18 -3 9 -11 41 -17
70 l-12 52 -73 0 -72 0 -12 -57z"/>
<path d="M400 288 c-6 -29 -14 -61 -17 -70 -4 -16 5 -18 96 -18 113 0 107 -5
90 83 l-12 57 -72 0 -73 0 -12 -52z"/>
<path d="M18 75 l-15 -75 105 0 c85 0 103 3 99 14 -3 8 -11 41 -18 75 l-12 61
-72 0 -72 0 -15 -75z"/>
<path d="M271 113 c-5 -21 -13 -55 -17 -76 l-6 -37 102 0 102 0 -6 38 c-4 20
-12 54 -17 75 l-10 37 -69 0 -69 0 -10 -37z"/>
<path d="M511 89 c-7 -34 -15 -67 -18 -75 -4 -11 14 -14 99 -14 l105 0 -15 75
-15 75 -72 0 -72 0 -12 -61z"/>
</g>
</svg>
